<svg xmlns="http://www.w3.org/2000/svg" width="90" height="89" viewBox="0 0 90 89">
    <g fill="none" fill-rule="evenodd">
        <path fill="#FF980D" fill-opacity=".101" d="M55.812 3.17l30.185 27.37a12 12 0 0 1 2.913 13.747L72.303 81.803a12 12 0 0 1-12.228 7.076l-40.349-4.24a12 12 0 0 1-10.489-9.465L.793 35.025A12 12 0 0 1 6.5 22.185L41.716 1.688a12 12 0 0 1 14.096 1.482z"/>
        <path stroke="#5B3707" stroke-opacity=".402" d="M59.683 12.07a11.5 11.5 0 0 0-12.939-3.956L14.756 19.151A11.5 11.5 0 0 0 7.01 30.218l.578 33.878a11.5 11.5 0 0 0 8.136 10.801l32.333 9.885a11.5 11.5 0 0 0 12.785-4.405l19.424-27.762a11.5 11.5 0 0 0-.234-13.508L59.683 12.07z"/>
        <path fill="#FF980D" d="M46.089 13.19l21.92 16.047a12 12 0 0 1 4.332 13.365l-8.41 26.08A12 12 0 0 1 52.511 77H25.49a12 12 0 0 1-11.421-8.317l-8.41-26.08a12 12 0 0 1 4.333-13.366l21.92-16.047a12 12 0 0 1 14.177 0z"/>
        <g fill="#FFF" fill-rule="nonzero">
            <path d="M19.318 52.588a.928.928 0 0 0-.454 1.214l2.084 4.477c.102.222.29.396.519.482.1.036.207.055.315.055a.922.922 0 0 0 .389-.083l15.746-7.359-1.426 14.92a.927.927 0 0 0 .305.78c.69.571 1.55.897 2.445.926.247 0 .493-.031.732-.092 1.278-.334 2.27-1.474 2.946-3.42l6.196-18.359 12.273-5.727c3.612-1.687 5.474-5.107 4.223-7.776a4.69 4.69 0 0 0-3.621-2.53 8.582 8.582 0 0 0-5.057.78L42.77 37.52l-15.227-5.96c-1.918-.722-3.436-.703-4.501.066a3.78 3.78 0 0 0-1.38 2.993c.008.293.156.565.397.732l10.254 7.053-5.872 2.78-9.847-2.503a.926.926 0 0 0-1.028.445l-2.454 4.42a.925.925 0 0 0 .482 1.308l7.29 3.012-1.566.722zm4.242-18.432c.054-.392.252-.749.556-1.001.528-.38 1.491-.325 2.778.157l13.56 5.292-6.187 2.891-10.707-7.34zm-8.336 13.382l1.611-2.864 9.476 2.354c.204.051.42.032.612-.055L57.72 32.58a6.767 6.767 0 0 1 3.955-.63 2.9 2.9 0 0 1 2.26 1.464c.778 1.668-.75 4.106-3.335 5.31L49.93 43.73l.649-1.919a.942.942 0 0 0-1.788-.593l-7.623 22.696c-.454 1.288-1.02 2.058-1.649 2.224a1.567 1.567 0 0 1-1.13-.213l1.853-19.462a.93.93 0 1 0-1.853-.175l-.287 2.974-15.895 7.414-1.305-2.78 2.612-1.223a.927.927 0 0 0 0-1.696l-8.29-3.438z"/>
        </g>
    </g>
</svg>
