<svg xmlns="http://www.w3.org/2000/svg" width="94" height="94" viewBox="0 0 94 94">
    <g fill="none" fill-rule="evenodd">
        <path fill="#4CC9FF" fill-opacity=".102" d="M36.397 3.33l52.967 46.54c4.979 4.375 5.468 11.957 1.094 16.936a12 12 0 0 1-5.108 3.425L19.298 92.975c-6.266 2.158-13.095-1.173-15.253-7.44a12 12 0 0 1-.445-6.133l13.085-69.285C17.915 3.605 24.191-.677 30.704.553a12 12 0 0 1 5.693 2.777z"/>
        <path stroke="#085475" stroke-opacity=".397" d="M28.105 9.906a11.5 11.5 0 0 0-6.051-1.176c-6.332.504-11.056 6.044-10.553 12.375l4.834 60.787a11.5 11.5 0 0 0 1.93 5.52c3.551 5.265 10.7 6.654 15.965 3.102l49.715-33.533a11.5 11.5 0 0 0 3.857-4.395c2.839-5.681.534-12.588-5.148-15.427L28.104 9.906z"/>
        <path fill="#4CC9FF" d="M48.938 15.408l25.9 45.673c3.27 5.765 1.246 13.088-4.519 16.357A12 12 0 0 1 64.4 79H12.6c-6.627 0-12-5.373-12-12a12 12 0 0 1 1.562-5.92l25.9-45.672c3.269-5.765 10.592-7.789 16.357-4.52a12 12 0 0 1 4.52 4.52z"/>
        <g fill="#FFF" fill-rule="nonzero">
            <path d="M51.197 45.259a9.691 9.691 0 0 0-3.774.761l-2.78-5.43h3.885c.421 0 .764.346.764.77 0 .424-.343.77-.764.77h-.829a.792.792 0 0 0-.79.795c0 .439.354.795.79.795h.829a2.355 2.355 0 0 0 2.344-2.36A2.355 2.355 0 0 0 48.528 39h-5.18a.789.789 0 0 0-.674.381.8.8 0 0 0-.028.779l1.382 2.7H32.63l-1.15-2.27h1.818c.437 0 .79-.356.79-.795a.792.792 0 0 0-.79-.795h-5.18a.792.792 0 0 0-.79.795c0 .44.354.795.79.795h1.589l1.535 3.03-1.804 2.814a9.69 9.69 0 0 0-4.635-1.175c-5.405 0-9.803 4.428-9.803 9.87C15 60.572 19.398 65 24.803 65c5.14 0 9.368-4.003 9.771-9.075h2.318l-.9 2.949h-.519a.792.792 0 0 0-.79.795c0 .44.354.795.79.795h2.843c.437 0 .79-.356.79-.795a.792.792 0 0 0-.79-.795h-.672l1.039-3.405 6.571-10.213.766 1.495a9.888 9.888 0 0 0-4.626 8.378c0 5.443 4.397 9.871 9.803 9.871C56.602 65 61 60.572 61 55.13c0-5.443-4.398-9.871-9.803-9.871zm-19.125-.002l4.599 9.077h-2.097a9.884 9.884 0 0 0-3.811-7.036l1.309-2.04zm.916 9.077h-6.735l3.65-5.693a8.29 8.29 0 0 1 3.085 5.693zm-8.185 9.076c-4.534 0-8.223-3.715-8.223-8.28 0-4.566 3.689-8.28 8.223-8.28 1.36 0 2.643.335 3.774.926l-4.438 6.922a.8.8 0 0 0-.03.812.789.789 0 0 0 .694.414h8.185c-.399 4.195-3.917 7.486-8.185 7.486zm13.239-9.87l-4.606-9.09H43.89l-5.85 9.09zm13.155 9.87c-4.535 0-8.224-3.715-8.224-8.28a8.292 8.292 0 0 1 3.774-6.958l3.748 7.322a.789.789 0 0 0 1.064.342.798.798 0 0 0 .34-1.071l-3.75-7.324a8.129 8.129 0 0 1 3.048-.592c4.534 0 8.223 3.715 8.223 8.28 0 4.566-3.689 8.28-8.223 8.28z"/>
        </g>
    </g>
</svg>
