<svg xmlns="http://www.w3.org/2000/svg" width="89" height="89" viewBox="0 0 89 89">
    <g fill="none" fill-rule="evenodd">
        <g transform="translate(-2 -2)">
            <rect width="77" height="77" x="8" y="8.005" fill="#20D0C2" fill-opacity=".15" rx="11" transform="rotate(-78 46.5 46.505)"/>
            <path stroke="#075F58" stroke-opacity=".4" d="M14.18 20.77a10.5 10.5 0 0 0-7.2 13l13.79 48.05a10.5 10.5 0 0 0 13 7.2l48.05-13.79a10.5 10.5 0 0 0 7.2-13L75.23 14.18a10.5 10.5 0 0 0-13-7.2L14.18 20.77z"/>
            <path fill="#20D0C2" d="M28 19h39c6.075 0 11 4.925 11 11v39c0 6.075-4.925 11-11 11H28c-6.075 0-11-4.925-11-11V30c0-6.075 4.925-11 11-11z"/>
        </g>
        <g fill="#FFF" fill-rule="nonzero">
            <path d="M30.5 51a4.5 4.5 0 1 1-4.5 4.5 4.51 4.51 0 0 1 4.5-4.5zm0 7.2a2.7 2.7 0 1 0 0-5.4 2.7 2.7 0 0 0 0 5.4zM60.5 51a4.5 4.5 0 1 1-4.5 4.5 4.51 4.51 0 0 1 4.5-4.5zm0 7.2a2.7 2.7 0 1 0 0-5.4 2.7 2.7 0 0 0 0 5.4z"/>
            <path d="M19.88 50.63v-5.37a.89.89 0 0 1 .6-.85l5-1.68c1.88-3.22 4.46-6.29 10.16-7.3 10.53-1.48 18.44.93 23.51 7.16 5.87.09 11.94 2 11.94 5.37v2.69a.89.89 0 0 1 .88.9v3.55a.89.89 0 0 1-.88.9h-3.51a.89.89 0 0 1-.88-.9 6.185 6.185 0 1 0-12.37 0 .89.89 0 0 1-.88.9h-15.9a.89.89 0 0 1-.88-.9 6.185 6.185 0 1 0-12.37 0 .89.89 0 0 1-.88.9h-3.54a.89.89 0 0 1-.88-.9v-3.58a.89.89 0 0 1 .88-.89zm11.44-11.77a12 12 0 0 0-3.67 3.71h3.7l-.03-3.71zM42 36.79a39.65 39.65 0 0 0-6 .4 14.53 14.53 0 0 0-2.84.79v4.59H42v-5.78zm1.77.08v5.71h13.02c-3.28-3.43-7.6-5.32-13.06-5.71h.04zm-23 17.34h1.82a7.94 7.94 0 0 1 15.8 0h14.23a7.94 7.94 0 0 1 15.8 0h1.82v-1.79a.89.89 0 0 1-.88-.9v-2.68h-.88a.9.9 0 0 1 0-1.79h.46c-1.2-1.31-4.85-2.69-10.17-2.69H26.21l-4.56 1.54V47h.88a.9.9 0 0 1 0 1.79h-.88v2.69a.89.89 0 0 1-.88.9v1.83z"/>
        </g>
    </g>
</svg>
