<svg xmlns="http://www.w3.org/2000/svg" width="59" height="45" viewBox="0 0 59 45">
    <g fill="#FF980D" fill-rule="evenodd">
        <path d="M55.918 16.192l-5.399 23.386a4.005 4.005 0 0 1-4.797 2.997L17.242 36H46c3.309 0 6-2.692 6-6V11.182l.92.213a4.005 4.005 0 0 1 2.998 4.797zM6 34c-2.206 0-4-1.794-4-4V13h48v17c0 2.206-1.794 4-4 4H6zM2 11h48V8H2v3zm4-9h40c2.206 0 4 1.794 4 4H2c0-2.206 1.794-4 4-4zm47.37 7.446L52 9.13V6c0-3.309-2.691-6-6-6H6C2.691 0 0 2.691 0 6v24c0 3.308 2.691 6 6 6h2.349l36.923 8.524a5.961 5.961 0 0 0 4.529-.758 5.965 5.965 0 0 0 2.667-3.739l5.399-23.385a6.008 6.008 0 0 0-4.497-7.196z"/>
        <path d="M34.999 23H46v4H35l-.001-4zM48 27v-4c0-1.103-.897-2-2-2H35c-1.103 0-2 .897-2 2v4c0 1.103.897 2 2 2h11c1.103 0 2-.897 2-2zM7 20h10a1 1 0 0 0 0-2H7a1 1 0 0 0 0 2M26 22H16a1 1 0 0 0 0 2h10a1 1 0 1 0 0-2M26 18h-5a1 1 0 0 0 0 2h5a1 1 0 0 0 0-2M12 22H7a1 1 0 0 0 0 2h5a1 1 0 1 0 0-2"/>
    </g>
</svg>
