<svg xmlns="http://www.w3.org/2000/svg" width="47" height="40" viewBox="0 0 47 40">
    <g fill="#20D0C2" fill-rule="nonzero">
        <circle cx="25" cy="11" r="1"/>
        <circle cx="31" cy="11" r="1"/>
        <circle cx="37" cy="11" r="1"/>
        <path d="M25.297 37h-3.594c-.388 0-.703.224-.703.5s.315.5.703.5h3.594c.388 0 .703-.224.703-.5s-.315-.5-.703-.5z"/>
        <path d="M46.758 34.188l.005-.025a.816.816 0 0 0-.578-.244h-.953V12.447a3.689 3.689 0 0 0-.494-1.814 3.725 3.725 0 0 0-.988-1.157 10.593 10.593 0 0 0-3.907-6.255 15.304 15.304 0 0 0-9.596-3.22 15.304 15.304 0 0 0-9.597 3.22 10.78 10.78 0 0 0-3.744 5.538H5.423c-2.015.008-3.647 1.655-3.655 3.688v21.497H.82a.831.831 0 0 0-.82.827c.008 2.885 2.323 5.22 5.181 5.229H41.82c2.858-.008 5.173-2.344 5.181-5.228a.831.831 0 0 0-.242-.584zm-2.949-21.756v21.512h-1.59v-17.41s.573-.967.943-1.75c.313-.753.53-1.543.647-2.352zM18.141 9.651h.015v-.065a9.204 9.204 0 0 1 3.368-5.243 13.884 13.884 0 0 1 8.708-2.901c3.143-.05 6.211.972 8.707 2.9a9.094 9.094 0 0 1 3.438 5.678v.189c.035.281.055.564.06.848v.124a8.189 8.189 0 0 1-1.527 4.705c-1.062 1.496-3.59 4.322-9.26 4.935a21.143 21.143 0 0 1-3.774-.115s-1.68-.374-2.232-.528a.758.758 0 0 0-.321-.04.638.638 0 0 0-.282.094l-3.457 2.024.494-3.354a.839.839 0 0 0-.04-.374 1.083 1.083 0 0 0-.178-.264 29.875 29.875 0 0 1-2.153-2.124 8.795 8.795 0 0 1-.455-.662 8.405 8.405 0 0 1-1.017-2.343v-.05a7.92 7.92 0 0 1-.168-.787v-.06a7.847 7.847 0 0 1 .074-2.587zm-.074 6.604a14.41 14.41 0 0 0 2.558 2.861l-.661 4.426a.722.722 0 0 0 .606.819.71.71 0 0 0 .495-.111l4.445-2.602c.71.216 1.435.383 2.168.498 1.498.17 3.007.2 4.51.085 5.383-.698 7.73-3.085 8.613-3.987v15.7H6.213v-18.94a1.905 1.905 0 0 1 1.892-1.909h8.678c.277 1.11.71 2.174 1.284 3.16zM3.196 12.447c.005-1.24 1-2.242 2.227-2.248H16.63c-.027.256-.043.514-.05.773V11.665H8.105c-1.827.005-3.308 1.495-3.32 3.339v18.94h-1.59V12.447zM44.47 37.433a3.722 3.722 0 0 1-2.647 1.112H5.18a3.779 3.779 0 0 1-3.704-3.17h44.046a3.8 3.8 0 0 1-1.052 2.058z"/>
    </g>
</svg>
