<svg xmlns="http://www.w3.org/2000/svg" xmlns:xlink="http://www.w3.org/1999/xlink" width="65" height="56" viewBox="0 0 65 56">
    <defs>
        <path id="a" d="M.596 0h34v39h-34z"/>
        <path id="c" d="M0 .904h53.685v42.663H0z"/>
    </defs>
    <g fill="none" fill-rule="evenodd">
        <path fill="#20D0C2" d="M6.596 42.096a1 1 0 0 0-1 1v10a1 1 0 1 0 2 0v-10a1 1 0 0 0-1-1M15.596 36.096a1 1 0 0 0-1 1v16a1 1 0 1 0 2 0v-16a1 1 0 0 0-1-1M24.596 30.096a1 1 0 0 0-1 1v22a1 1 0 1 0 2 0v-22a1 1 0 0 0-1-1"/>
        <g transform="translate(30 16.096)">
            <mask id="b" fill="#fff">
                <use xlink:href="#a"/>
            </mask>
            <path fill="#20D0C2" d="M17.596 37c-1.387 0-2.725-.204-4-.558a14.843 14.843 0 0 1-2-.703 15.088 15.088 0 0 1-7-6.287 14.893 14.893 0 0 1-2-7.452c0-2.713.735-5.254 2-7.452a15.083 15.083 0 0 1 7-6.287 14.983 14.983 0 0 1 2-.703 14.919 14.919 0 0 1 4-.558c8.271 0 15 6.729 15 15s-6.729 15-15 15m0-32c-1.38 0-2.715.183-4 .495V1a1 1 0 1 0-2 0v5.114a17.061 17.061 0 0 0-7 4.954V7a1 1 0 1 0-2 0v7.017a16.886 16.886 0 0 0-2 7.983c0 2.885.727 5.601 2 7.983V37a1 1 0 1 0 2 0v-4.068c3.121 3.706 7.787 6.068 13 6.068 9.374 0 17-7.626 17-17 0-9.374-7.626-17-17-17" mask="url(#b)"/>
        </g>
        <path fill="#20D0C2" d="M50.02 44.432c-.488.464-1.172.696-2.052.696v-5.256c.896.304 1.584.66 2.065 1.068.48.408.72.98.72 1.716 0 .72-.245 1.312-.733 1.776zm-2.867-7.296c-.864-.304-1.529-.66-1.992-1.068-.465-.407-.697-.964-.697-1.668 0-.736.241-1.308.72-1.716.481-.408 1.136-.62 1.97-.636v5.088zm4.02 1.416c-.697-.32-1.613-.656-2.749-1.008l-.456-.144v-5.28c.688.128 1.237.405 1.645.828.407.424.66.924.756 1.5h2.952c-.145-1.248-.68-2.28-1.609-3.096-.927-.816-2.175-1.28-3.744-1.392v-2.064h-.815v2.04c-1.105 0-2.08.192-2.929.576a5.498 5.498 0 0 0-.628.336 4.451 4.451 0 0 0-1.35 1.272 3.966 3.966 0 0 0-.65 1.653 4.59 4.59 0 0 0-.059.723c0 .295.021.57.06.834.103.72.345 1.325.732 1.806.38.473.803.849 1.267 1.134.18.11.364.21.557.294.687.297 1.687.644 3 1.044v5.448c-.784-.128-1.404-.447-1.86-.96-.457-.512-.717-1.08-.78-1.704h-2.917v.067c.125 1.313.678 2.4 1.668 3.257.104.089.223.158.332.239.958.715 2.135 1.146 3.557 1.26v1.969h.815v-1.92h.048c1.233 0 2.273-.216 3.12-.648.848-.432 1.485-1.003 1.908-1.716a4.446 4.446 0 0 0 .636-2.316c0-1.072-.244-1.932-.73-2.58a4.624 4.624 0 0 0-1.778-1.452z"/>
        <g transform="translate(0 -.904)">
            <mask id="d" fill="#fff">
                <use xlink:href="#c"/>
            </mask>
            <path fill="#20D0C2" d="M49.242 8.4a1 1 0 0 0 1.687-.216l2.667-5.866A1 1 0 0 0 52.47.928l-6.293 1.388a1 1 0 0 0-.562 1.606l1.25 1.543L.385 41.779a1 1 0 0 0 1.23 1.577L48.125 7.02l1.118 1.38z" mask="url(#d)"/>
        </g>
    </g>
</svg>
