<svg xmlns="http://www.w3.org/2000/svg" width="38" height="53" viewBox="0 0 38 53">
    <path fill="#FF980D" fill-rule="nonzero" d="M35.69 6.979l.103-.592C36.215 3.845 34.492 1.44 31.932 1h-.103c-2.557-.397-4.96 1.315-5.398 3.844l-.222 1.254-.544 3.36-.844 4.945V1.88a1.781 1.781 0 0 0-.514-1.265 1.807 1.807 0 0 0-1.275-.51h-9.948a1.802 1.802 0 0 0-1.815 1.775v10.624l-.874-4.879v-.122a.727.727 0 0 0-.138-.316L4.94.285a.74.74 0 0 0-1.286.23L2.663 3.71v.035L1.121 8.737a.723.723 0 0 0-.036.388v.127l1.871 10.416a4.636 4.636 0 0 0-1.846 1.096A3.524 3.524 0 0 0 0 23.277c0 .18.016.359.046.536l4.195 25.042a5.431 5.431 0 0 0 1.455 2.962A3.908 3.908 0 0 0 8.51 53H27.53a3.914 3.914 0 0 0 2.812-1.162 5.431 5.431 0 0 0 1.455-2.963l4.195-25.042c.03-.177.046-.356.046-.535a3.503 3.503 0 0 0-1.028-2.447 2.16 2.16 0 0 0 .545-.28c.46-.324.77-.816.864-1.367l1.542-9.014A2.806 2.806 0 0 0 35.69 6.98zm-7.815-1.902a.729.729 0 0 0 0-.092c.324-1.716 1.961-2.868 3.702-2.605h.087c1.747.323 2.913 1.973 2.622 3.711l-.103.592-6.4-1.045.092-.561zm-.34 1.978l6.417 1.08-.103.602-.22 1.3-6.422-1.055.329-1.927zm-.57 3.344l6.411 1.097-1.203 7.035-.16.933h-6.59l1.542-9.065zm-5.568-8.85h1.589a.33.33 0 0 1 .334.331v17.574h-1.923V1.549zM12.75 16.461h1.923a.735.735 0 0 0 .738-.731.735.735 0 0 0-.738-.732H12.75v-1.157h3.573a.735.735 0 0 0 .738-.732.735.735 0 0 0-.738-.731H12.75v-1.153h1.923a.735.735 0 0 0 .738-.731.735.735 0 0 0-.738-.732H12.75V8.605h1.923a.735.735 0 0 0 .738-.732.735.735 0 0 0-.738-.731H12.75V5.984h3.573a.735.735 0 0 0 .738-.731.735.735 0 0 0-.738-.732H12.75v-2.64c0-.184.15-.332.334-.332h6.843v17.905h-7.198l.021-2.993zm-1.717 2.993h-2.57l-1.574-8.82c.407.127.839.156 1.26.087h.036c.43-.073.835-.248 1.182-.51l1.666 9.243zm-6.39-17.16l.745.973a1.873 1.873 0 0 1-.514.184c-.191.029-.385.029-.576 0l.344-1.158zm-2.114 6.74l1.29-4.166.207.036c.719.119 1.457 0 2.102-.337l.18-.102 2.663 3.467a1.24 1.24 0 0 1-1.028 1.371h-.036c-.32.05-.649-.025-.915-.209H6.95a1.715 1.715 0 0 1-.478-.76.72.72 0 0 0-.92-.555.663.663 0 0 0-.516.786l.001.004c.065.311 0 .635-.18.897l-.03.041c-.192.27-.485.454-.813.51a1.267 1.267 0 0 1-.971-.25 1.238 1.238 0 0 1-.515-.734zm.412 2.293c.417.13.86.158 1.29.082.43-.074.835-.248 1.183-.51l1.542 8.56h-2.57L2.94 11.327zm31.628 12.251l-4.195 25.043a3.962 3.962 0 0 1-1.028 2.161 2.462 2.462 0 0 1-1.774.734H8.55a2.462 2.462 0 0 1-1.774-.734 3.962 3.962 0 0 1-1.028-2.161L1.5 23.578c-.008-.1-.008-.2 0-.3.01-.56.246-1.092.653-1.479a3.166 3.166 0 0 1 1.681-.846h27.942c.136.002.272.014.406.035l.237.051h.046a3.154 3.154 0 0 1 1.424.76c.417.383.662.915.679 1.478.008.1.008.201 0 .301zM36.476 9.93l-1.557 9.02a.658.658 0 0 1-.756.509.653.653 0 0 1-.514-.75l1.084-6.372.227-1.316.118-.698.329-1.922a1.342 1.342 0 0 1 1.07 1.53z"/>
</svg>
