<svg xmlns="http://www.w3.org/2000/svg" width="42" height="43" viewBox="0 0 42 43">
    <g fill="#4CC9FF" fill-rule="nonzero">
        <path d="M34.175 12.493a.833.833 0 0 0 .825-.84V2.52C35 1.13 33.89 0 32.524 0H2.476C1.111 0 0 1.13 0 2.52v37.96C0 41.87 1.11 43 2.476 43h30.048C33.889 43 35 41.87 35 40.48v-6.187c0-.464-.37-.84-.825-.84a.833.833 0 0 0-.826.84v6.187c0 .464-.37.84-.825.84H2.476a.834.834 0 0 1-.825-.84V2.52c0-.464.37-.84.825-.84h30.048c.455 0 .825.376.825.84v9.133c0 .464.37.84.826.84z"/>
        <path d="M18 5c-4.411 0-8 3.589-8 8a7.978 7.978 0 0 0 2.605 5.902A7.969 7.969 0 0 0 18 21a7.97 7.97 0 0 0 5.488-2.185A7.978 7.978 0 0 0 26 13c0-4.411-3.589-8-8-8zm0 14.26c-1.42 0-2.73-.475-3.782-1.275A4.32 4.32 0 0 1 18 15.783a4.32 4.32 0 0 1 3.782 2.202A6.228 6.228 0 0 1 18 19.261zm-1.391-6.608v-.565c0-.767.624-1.391 1.391-1.391s1.391.624 1.391 1.391v.565c0 .767-.624 1.392-1.391 1.392a1.393 1.393 0 0 1-1.391-1.392zm6.43 4.06a6.033 6.033 0 0 0-2.563-2.148c.41-.53.654-1.192.654-1.912v-.565A3.134 3.134 0 0 0 18 8.957a3.134 3.134 0 0 0-3.13 3.13v.565c0 .72.244 1.383.654 1.912a6.033 6.033 0 0 0-2.562 2.148A6.227 6.227 0 0 1 11.739 13 6.268 6.268 0 0 1 18 6.74 6.268 6.268 0 0 1 24.26 13a6.227 6.227 0 0 1-1.222 3.712zM22.19 37h-4.38c-.447 0-.81.448-.81 1s.363 1 .81 1h4.38c.447 0 .81-.448.81-1s-.363-1-.81-1zM22.136 32H9.864C9.387 32 9 32.448 9 33s.387 1 .864 1h12.272c.477 0 .864-.448.864-1s-.387-1-.864-1zM22.136 27H9.864C9.387 27 9 27.448 9 28s.387 1 .864 1h12.272c.477 0 .864-.448.864-1s-.387-1-.864-1zM22.136 22H9.864C9.387 22 9 22.448 9 23s.387 1 .864 1h12.272c.477 0 .864-.448.864-1s-.387-1-.864-1zM40.238 10.474a3.502 3.502 0 0 0-2.676-.352c-.91.244-1.67.827-2.141 1.644L24.856 30.075a.842.842 0 0 0-.107.327l-.744 6.665a.84.84 0 0 0 1.332.77l5.397-3.978a.838.838 0 0 0 .23-.256l10.564-18.31a3.533 3.533 0 0 0-1.29-4.819zM25.887 35.345l.388-3.48 2.43 1.403-2.818 2.077zm4.042-3.31l-3.199-1.848 8.478-14.692 3.2 1.848-8.479 14.692zm10.145-17.581l-.827 1.434-3.2-1.848.828-1.434a1.835 1.835 0 0 1 1.122-.861 1.834 1.834 0 0 1 1.401.184c.427.247.733.645.86 1.122.128.477.063.975-.184 1.403z"/>
    </g>
</svg>
