<svg xmlns="http://www.w3.org/2000/svg" width="93" height="93" viewBox="0 0 93 93">
    <g fill="none" fill-rule="evenodd">
        <g>
            <circle cx="46.5" cy="46.5" r="46.5" fill="#FE6478" fill-opacity=".104"/>
            <circle cx="49.5" cy="44.5" r="40" stroke="#730B19" stroke-opacity=".396"/>
            <circle cx="46.5" cy="46.5" r="34.5" fill="#FE6478"/>
        </g>
        <g fill="#FFF" fill-rule="nonzero">
            <path d="M69.825 24.92a.857.857 0 0 0-.745-.745 23.542 23.542 0 0 0-10.486 1.095 23.544 23.544 0 0 0-8.942 5.585l-5.712 5.711-8.244 1.063a.857.857 0 0 0-.496.244l-7.949 7.95a.857.857 0 0 0 .45 1.448l6.01 1.113 1.18 1.181-2.513 1.361a.857.857 0 0 0-.198 1.36l9.534 9.534a.857.857 0 0 0 1.36-.198l1.361-2.514 1.181 1.181 1.113 6.01a.857.857 0 0 0 1.449.45l7.949-7.949a.857.857 0 0 0 .244-.496l1.063-8.244 5.711-5.712a23.544 23.544 0 0 0 5.585-8.942 23.545 23.545 0 0 0 1.095-10.486zM33.842 46.665l-4.227-.782 6.59-6.59 5.751-.743-8.114 8.115zm8.271 13.131l-7.909-7.91 1.952-1.056 7.015 7.014-1.058 1.952zm12.595-2.001l-6.59 6.59-.783-4.226 8.115-8.115-.742 5.751zm7.225-14.659L46.41 58.66 35.34 47.59l15.524-15.523a21.82 21.82 0 0 1 8.031-5.084 10.277 10.277 0 0 0 2.817 5.305 10.278 10.278 0 0 0 5.305 2.817 21.825 21.825 0 0 1-5.084 8.031zm5.6-9.678a8.561 8.561 0 0 1-4.609-2.382 8.56 8.56 0 0 1-2.382-4.609 21.867 21.867 0 0 1 7.654-.663c.235 2.56.006 5.17-.663 7.654z"/>
            <path d="M49.609 36.609a5.509 5.509 0 0 0 0 7.782A5.485 5.485 0 0 0 53.5 46a5.486 5.486 0 0 0 3.89-1.61h.001a5.509 5.509 0 0 0 0-7.781 5.509 5.509 0 0 0-7.782 0zm6.5 6.5a3.693 3.693 0 0 1-5.217 0 3.693 3.693 0 0 1 0-5.217 3.677 3.677 0 0 1 2.608-1.079c.945 0 1.889.36 2.608 1.079a3.693 3.693 0 0 1 0 5.216zM34.723 58.277a.945.945 0 0 0-1.337 0l-8.11 8.11a.945.945 0 1 0 1.338 1.336l8.11-8.11a.945.945 0 0 0 0-1.336zM36.545 60.25l-3.295 3.295a.852.852 0 1 0 1.205 1.205l3.295-3.295a.852.852 0 1 0-1.205-1.205zM32 65c-.419 0-.801.27-.943.664-.144.4-.01.86.323 1.123.34.27.837.285 1.192.036a1.01 1.01 0 0 0 .353-1.205A1.007 1.007 0 0 0 32 65z"/>
            <path d="M33.025 66.065c.095.225-.09-.225 0 0zM28.978 67.347l-.63.63a1.185 1.185 0 0 0 1.674 1.676l.63-.63a1.185 1.185 0 1 0-1.674-1.676zM27.75 60.25a.852.852 0 0 0-1.205 0l-3.295 3.295a.852.852 0 1 0 1.205 1.205l3.295-3.295a.852.852 0 0 0 0-1.205zM32.241 56.97c.407-.102.712-.456.754-.873a1.01 1.01 0 0 0-.547-.991 1.008 1.008 0 0 0-1.171.2 1.013 1.013 0 0 0-.109 1.254c.236.342.667.513 1.073.41zM30.023 59.653l.63-.63a1.184 1.184 0 1 0-1.676-1.676l-.63.63a1.184 1.184 0 1 0 1.676 1.676z"/>
        </g>
    </g>
</svg>
