<svg xmlns="http://www.w3.org/2000/svg" xmlns:xlink="http://www.w3.org/1999/xlink" width="56" height="54" viewBox="0 0 56 54">
    <defs>
        <path id="a" d="M.328.33h18.729v18.724H.328z"/>
    </defs>
    <g fill="none" fill-rule="evenodd">
        <path fill="#4CC9FF" d="M15 50c0 .552-.449 1-1 1H3c-.551 0-1-.448-1-1V39c0-.552.449-1 1-1h11c.551 0 1 .448 1 1v11zm-1-14H3c-1.654 0-3 1.346-3 3v11c0 1.654 1.346 3 3 3h11c1.654 0 3-1.346 3-3V39c0-1.654-1.346-3-3-3z"/>
        <g transform="translate(36)">
            <mask id="b" fill="#fff">
                <use xlink:href="#a"/>
            </mask>
            <path fill="#4CC9FF" d="M2.621 8.985l6.364-6.364a.996.996 0 0 1 .707-.292c.256 0 .513.097.707.292l6.365 6.364c.19.19.293.44.293.707a.993.993 0 0 1-.293.707L10.4 16.763a1 1 0 0 1-1.414 0L2.621 10.4a.993.993 0 0 1-.293-.707c0-.267.104-.518.293-.707zm4.95 9.193a2.993 2.993 0 0 0 2.121.876 2.99 2.99 0 0 0 2.121-.877l6.365-6.363a2.986 2.986 0 0 0 .88-2.122c0-.8-.314-1.555-.88-2.12l-6.365-6.365a3.005 3.005 0 0 0-4.242 0L1.207 7.57a2.986 2.986 0 0 0-.879 2.122c0 .801.313 1.555.88 2.121l6.363 6.365z" mask="url(#b)"/>
        </g>
        <path fill="#4CC9FF" d="M9 16c-3.86 0-7-3.14-7-7s3.14-7 7-7 7 3.14 7 7-3.14 7-7 7M9 0C4.038 0 0 4.038 0 9s4.038 9 9 9 9-4.038 9-9-4.038-9-9-9M45.5 52c-3.859 0-7-3.141-7-7s3.141-7 7-7 7 3.141 7 7-3.141 7-7 7m0-16c-4.963 0-9 4.037-9 9s4.037 9 9 9 9-4.037 9-9-4.037-9-9-9M31.075 6.142a1.001 1.001 0 0 0-1.575.819V8.5H20a1 1 0 0 0 0 2h9.5v1.54a1 1 0 0 0 1.574.819l3.628-2.54h.001a1.002 1.002 0 0 0-.001-1.638l-3.627-2.54zM45.5 20a1 1 0 0 0-1 1v8.5h-1.54a.982.982 0 0 0-.572.181.995.995 0 0 0-.246 1.393l2.54 3.628a.997.997 0 0 0 1.636 0l2.541-3.629a1 1 0 0 0-.819-1.573H46.5V21a1 1 0 0 0-1-1M8.5 35a1 1 0 0 0 1-1v-9.5h1.54a1.002 1.002 0 0 0 .984-.825.992.992 0 0 0-.165-.748l-2.54-3.629-.001-.001a.987.987 0 0 0-.991-.41.99.99 0 0 0-.646.411l-2.539 3.628A1.002 1.002 0 0 0 5.96 24.5H7.5V34a1 1 0 0 0 1 1"/>
    </g>
</svg>
