<svg xmlns="http://www.w3.org/2000/svg" xmlns:xlink="http://www.w3.org/1999/xlink" width="56" height="51" viewBox="0 0 56 51">
    <defs>
        <path id="a" d="M0 0h36.164v32H0z"/>
    </defs>
    <g fill="none" fill-rule="evenodd">
        <path fill="#FE6478" d="M2 43V8c0-1.654 1.346-3 3-3h7v2a1 1 0 0 0 2 0V5h8v2a1 1 0 0 0 2 0V5h8v2a1 1 0 1 0 2 0V5h6c1.654 0 3 1.346 3 3v7h2V8c0-2.757-2.243-5-5-5h-6V1a1 1 0 1 0-2 0v2h-8V1a1 1 0 0 0-2 0v2h-8V1a1 1 0 0 0-2 0v2H5C2.243 3 0 5.243 0 8v35c0 2.757 2.243 5 5 5h8v-2H5c-1.654 0-3-1.346-3-3"/>
        <g transform="translate(19 19)">
            <mask id="b" fill="#fff">
                <use xlink:href="#a"/>
            </mask>
            <path fill="#FE6478" d="M7.294 27A14.04 14.04 0 0 1 2 16C2 8.28 8.193 2 15.807 2c3.07 0 5.898 1.033 8.193 2.757a14.025 14.025 0 0 1 5.392 8.811L26 10.822l-.546-.442-1.258 1.555L26 13.395l3.288 2.662a1.98 1.98 0 0 0 1.467.435 1.977 1.977 0 0 0 1.346-.73l4.063-5.017-1.555-1.258-3.214 3.968A16.031 16.031 0 0 0 26 3.79a15.856 15.856 0 0 0-2-1.448A15.552 15.552 0 0 0 15.807 0C7.091 0 0 7.178 0 16a16.03 16.03 0 0 0 4.358 11 15.98 15.98 0 0 0 2.27 2c2.59 1.88 5.754 3 9.18 3v-2c-1.802 0-3.517-.361-5.097-1a13.77 13.77 0 0 1-3.417-2" mask="url(#b)"/>
        </g>
        <path fill="#FE6478" d="M34 35.767l-6.558 4.403 1.116 1.66 6.557-4.403c.554-.372.885-.992.885-1.66V24h-2v11.767zM14 15H8a1 1 0 0 0 0 2h6a1 1 0 0 0 0-2M20 15a1 1 0 0 0 0 2h6a1 1 0 0 0 0-2h-6zM32 15a1 1 0 1 0 0 2h6a1 1 0 1 0 0-2h-6zM14 23H8a1 1 0 0 0 0 2h6a1 1 0 0 0 0-2M14 31H8a1 1 0 1 0 0 2h6a1 1 0 1 0 0-2M39.535 45.726c.676-.416 1.33-.911 1.963-1.488A8.481 8.481 0 0 0 43 42.437c.02-.031.046-.06.064-.091.412-.684.617-1.36.617-2.027 0-.783-.232-1.402-.68-1.866-.029-.03-.05-.064-.079-.091-.508-.472-1.207-.708-2.1-.708-.91 0-1.658.277-2.242.832-.586.554-.908 1.356-.969 2.404h1.444c.033-.632.185-1.12.454-1.462.268-.343.667-.514 1.196-.514.512 0 .882.139 1.111.416.23.278.345.65.345 1.119 0 .788-.423 1.644-1.268 2.567-.844.923-1.969 1.865-3.374 2.827v1.092h6.371v-1.209h-4.355zM49.584 43.724h-3.225l3.225-4.212v4.212zm1.391-5.98h-1.586l-4.452 5.887-.111.146v1.248h4.654V47h1.495v-1.975h1.287v-1.301h-1.287v-5.98z"/>
    </g>
</svg>
