<svg xmlns="http://www.w3.org/2000/svg" width="42" height="48" viewBox="0 0 42 48">
    <g fill="#FE6478" fill-rule="nonzero">
        <path d="M40.427 8.267L25.647.332c-1.403-.753-3.33-.174-4.09 1.216l-8.646 15.928H2.395C1.052 17.476 0 18.52 0 19.851v25.774C0 46.957 1.052 48 2.395 48h33.592c1.344 0 2.395-1.043 2.395-2.375v-6.023h.993a.919.919 0 0 0 .935-.927v-6.893a.919.919 0 0 0-.935-.926h-.993v-6.777c0-1.1-.818-2.085-1.87-2.317l5.142-9.44a3.023 3.023 0 0 0-1.227-4.055zM29.911 4.734l-9.23 16.97h-2.63l9.874-18.013 1.986 1.043zm-6.66-2.317c.292-.521.993-.753 1.52-.463l1.46.81-10.282 18.94h-3.213L23.25 2.417zM1.811 19.793c0-.174.234-.463.526-.463h9.522l-1.285 2.317H2.337c-.175 0-.35 0-.526.057v-1.91zm34.643 25.832c0 .29-.233.522-.525.522H2.337a.521.521 0 0 1-.526-.522V24.08c0-.29.234-.521.526-.521H35.87c.292 0 .526.232.526.521v6.777h-3.564a2.793 2.793 0 0 0-2.804 2.78v3.185c0 1.564 1.285 2.78 2.804 2.78h3.622v6.024zm1.87-12.916h.058v5.04h-5.55a.919.919 0 0 1-.934-.928v-3.185c0-.521.409-.927.934-.927h5.492zm1.636-21.314l-5.609 10.31H22.784L31.547 5.66l7.945 4.286c.584.231.76.926.468 1.448z"/>
        <path d="M35.706 10.498l-.464-.222c-1.16-.612-2.726-.167-3.364.945l-.58 1.055c-.29.556-.407 1.223-.175 1.834.174.612.639 1.112 1.219 1.39l.464.222c.348.167.754.278 1.16.278.928 0 1.74-.5 2.204-1.223l.58-1.056a2.437 2.437 0 0 0-1.044-3.223zm-.638 2.39l-.58 1.056a.671.671 0 0 1-.87.222l-.464-.278c-.116-.055-.232-.222-.29-.333-.058-.167-.058-.334.058-.445l.58-1.056c.116-.167.348-.333.58-.333.116 0 .174 0 .29.055l.464.223c.232.222.348.555.232.889z"/>
    </g>
</svg>
