<svg xmlns="http://www.w3.org/2000/svg" width="16" height="11" viewBox="0 0 16 11">
    <path fill="#111" fill-opacity=".499" fill-rule="nonzero" d="M15.815 4.772C14.25 1.912 11.328 0 8 0 4.67 0 1.75 1.913.185 4.772a1.53 1.53 0 0 0 0 1.456C1.75 9.088 4.672 11 8 11c3.33 0 6.25-1.913 7.815-4.772a1.53 1.53 0 0 0 0-1.456zM8 9.565c-2.088 0-3.778-1.818-3.778-4.065 0-2.247 1.69-4.065 3.778-4.065s3.778 1.818 3.778 4.065c0 2.247-1.69 4.065-3.778 4.065zM10.889 5.5c0 1.717-1.294 3.109-2.889 3.109-1.595 0-2.889-1.392-2.889-3.109 0-.53.123-1.028.34-1.464v.001c0 .707.533 1.28 1.19 1.28.657 0 1.19-.573 1.19-1.28 0-.707-.533-1.28-1.19-1.28H6.64A2.716 2.716 0 0 1 8 2.391c1.595 0 2.889 1.392 2.889 3.109z"/>
</svg>
