<svg xmlns="http://www.w3.org/2000/svg" viewBox="0 0 57 25" width="57" height="25">
	<style>
		tspan { white-space:pre }
		.shp0 { fill: #034269 } 
		.shp1 { fill: #ffffff } 
	</style>
	<g id="Group 4">
		<path id="Path" class="shp0" d="M11.63,2.09l-0.9,6.24l-1.34,-6.24h-3.39l-1.34,6.24l-0.9,-6.24h-3.35l2.27,9.91h3.86l1.15,-5.63l1.15,5.63h3.86l2.27,-9.91z" />
		<path id="Path" class="shp0" d="M19.31,4.1h-3.11v7.9h3.11v-3.23c0,-0.52 0.14,-0.89 0.41,-1.09c0.28,-0.21 0.71,-0.31 1.29,-0.31h0.88v-3.32c-0.49,0 -0.97,0.14 -1.43,0.41c-0.46,0.28 -0.84,0.64 -1.16,1.1z" />
		<path id="Path" class="shp0" d="M23.1,3.04c0.33,0.29 0.76,0.43 1.3,0.43c0.53,0 0.96,-0.14 1.29,-0.43c0.33,-0.29 0.49,-0.65 0.49,-1.09c0,-0.45 -0.16,-0.82 -0.49,-1.11c-0.33,-0.29 -0.76,-0.44 -1.29,-0.44c-0.54,0 -0.98,0.15 -1.3,0.44c-0.33,0.29 -0.49,0.66 -0.49,1.11c0,0.44 0.16,0.8 0.49,1.09z" />
		<path id="Path" class="shp0" d="M22.84,4.1v7.9h3.11v-7.9z" />
		<path id="Path" class="shp0" d="M31.62,9.35c-0.21,0 -0.35,-0.04 -0.44,-0.13c-0.09,-0.08 -0.13,-0.22 -0.13,-0.41v-2.13h1.29v-2.59h-1.29v-1.9h-3.11v1.9h-0.98v2.59h0.98v2.07c0,2.16 1.08,3.23 3.25,3.23h1.18v-2.65z" />
		<path id="Path" class="shp0" d="M33.91,3.04c0.33,0.29 0.76,0.43 1.3,0.43c0.53,0 0.96,-0.14 1.29,-0.43c0.33,-0.29 0.49,-0.65 0.49,-1.09c0,-0.45 -0.16,-0.82 -0.49,-1.11c-0.33,-0.29 -0.76,-0.44 -1.29,-0.44c-0.54,0 -0.98,0.15 -1.3,0.44c-0.33,0.29 -0.49,0.66 -0.49,1.11c0,0.44 0.16,0.8 0.49,1.09z" />
		<path id="Path" class="shp0" d="M33.65,4.1v17.9h3.11v-17.9z" />
		<path id="Path" class="shp0" d="M42.34,4.4c-0.41,0.23 -0.73,0.54 -0.97,0.91v-1.2h-3.11v7.9h3.11v-4.19c0,-0.37 0.1,-0.67 0.29,-0.89c0.2,-0.22 0.47,-0.33 0.81,-0.33c0.34,0 0.6,0.11 0.8,0.33c0.2,0.22 0.3,0.52 0.3,0.89v4.19h3.09v-4.58c0,-1.04 -0.25,-1.86 -0.76,-2.46c-0.51,-0.61 -1.22,-0.91 -2.12,-0.91c-0.56,0 -1.04,0.12 -1.45,0.35z" />
		<path id="Combined Shape" class="shp0" d="M50.95,4.01c0.51,0 0.96,0.1 1.33,0.31c0.37,0.21 0.66,0.5 0.85,0.86v-1.08h3.09v7.76c0,0.74 -0.14,1.41 -0.41,2.02c-0.27,0.61 -0.71,1.09 -1.31,1.46c-0.6,0.36 -1.37,0.55 -2.32,0.55c-1.27,0 -2.27,-0.3 -3.02,-0.89c-0.74,-0.59 -1.16,-1.4 -1.27,-2.42h3.05c0.08,0.41 0.42,0.62 1.01,0.62c0.36,0 0.65,-0.09 0.85,-0.28c0.21,-0.19 0.31,-0.54 0.31,-1.05v-0.94c-0.2,0.36 -0.48,0.65 -0.85,0.86c-0.37,0.21 -0.82,0.32 -1.33,0.32c-0.62,0 -1.17,-0.16 -1.67,-0.48c-0.49,-0.32 -0.88,-0.79 -1.17,-1.4c-0.28,-0.61 -0.43,-1.33 -0.43,-2.16c0,-0.83 0.14,-1.55 0.43,-2.16c0.28,-0.61 0.67,-1.08 1.17,-1.4c0.49,-0.32 1.05,-0.48 1.67,-0.48zM51.99,6.72c-0.34,0 -0.61,0.12 -0.83,0.35c-0.21,0.23 -0.32,0.56 -0.32,0.98c0,0.42 0.11,0.75 0.32,0.98c0.21,0.23 0.49,0.35 0.83,0.35c0.34,0 0.61,-0.12 0.83,-0.35c0.21,-0.23 0.32,-0.56 0.32,-0.98c0,-0.42 -0.11,-0.75 -0.32,-0.98c-0.21,-0.23 -0.49,-0.35 -0.83,-0.35z" />
		<path id="Path" class="shp0" d="M2.22,16.5c-0.61,0.33 -1.09,0.8 -1.43,1.41c-0.34,0.61 -0.51,1.33 -0.51,2.15c0,0.82 0.17,1.54 0.51,2.15c0.34,0.61 0.82,1.08 1.43,1.41c0.61,0.33 1.31,0.49 2.09,0.49c1.03,0 1.89,-0.29 2.6,-0.87c0.7,-0.58 1.15,-1.38 1.34,-2.41h-3.29c-0.12,0.41 -0.36,0.62 -0.71,0.62c-0.25,0 -0.45,-0.12 -0.6,-0.35c-0.14,-0.23 -0.22,-0.58 -0.22,-1.04c0,-0.46 0.07,-0.8 0.22,-1.04c0.14,-0.23 0.34,-0.35 0.6,-0.35c0.35,0 0.59,0.21 0.71,0.62h3.29c-0.19,-1.03 -0.63,-1.83 -1.34,-2.41c-0.7,-0.58 -1.57,-0.87 -2.6,-0.87c-0.78,0 -1.48,0.16 -2.09,0.49z" />
		<path id="Path" class="shp0" d="M12.43,16.1h-3.11v7.9h3.11v-3.23c0,-0.52 0.14,-0.89 0.41,-1.09c0.28,-0.21 0.71,-0.31 1.29,-0.31h0.88v-3.32c-0.49,0 -0.97,0.14 -1.43,0.41c-0.46,0.28 -0.84,0.64 -1.16,1.1z" />
		<path id="Combined Shape" class="shp0" d="M23.61,19.98c0,0.2 -0.02,0.4 -0.07,0.62h-4.97c0.03,0.39 0.12,0.66 0.27,0.8c0.15,0.14 0.35,0.22 0.59,0.22c0.34,0 0.58,-0.15 0.73,-0.46h3.29c-0.11,0.56 -0.35,1.06 -0.71,1.51c-0.36,0.44 -0.81,0.79 -1.36,1.05c-0.55,0.26 -1.15,0.39 -1.8,0.39c-0.78,0 -1.48,-0.16 -2.09,-0.49c-0.61,-0.33 -1.09,-0.8 -1.43,-1.41c-0.34,-0.61 -0.51,-1.33 -0.51,-2.15c0,-0.82 0.17,-1.54 0.51,-2.15c0.34,-0.61 0.82,-1.08 1.43,-1.41c0.61,-0.33 1.31,-0.49 2.09,-0.49c0.78,0 1.48,0.16 2.09,0.48c0.61,0.32 1.09,0.78 1.43,1.38c0.34,0.6 0.51,1.3 0.51,2.11zM20.46,19.32c0,-0.3 -0.08,-0.52 -0.25,-0.66c-0.17,-0.14 -0.38,-0.22 -0.63,-0.22c-0.57,0 -0.9,0.29 -0.98,0.88z" />
		<path id="Combined Shape" class="shp0" d="M32.06,17.87c-0.34,-0.6 -0.82,-1.06 -1.43,-1.38c-0.61,-0.32 -1.31,-0.48 -2.09,-0.48c-0.78,0 -1.48,0.16 -2.09,0.49c-0.61,0.33 -1.09,0.8 -1.43,1.41c-0.34,0.61 -0.51,1.33 -0.51,2.15c0,0.82 0.17,1.54 0.51,2.15c0.34,0.61 0.82,1.08 1.43,1.41c0.61,0.33 1.31,0.49 2.09,0.49c0.65,0 1.25,-0.13 1.8,-0.39c0.55,-0.26 1,-0.61 1.36,-1.05c0.36,-0.44 0.6,-0.94 0.71,-1.51h-3.29c-0.15,0.31 -0.39,0.46 -0.73,0.46c-0.24,0 -0.44,-0.07 -0.59,-0.22c-0.15,-0.14 -0.24,-0.41 -0.27,-0.8h4.97c0.05,-0.21 0.07,-0.42 0.07,-0.62c0,-0.81 -0.17,-1.52 -0.51,-2.11z" />
		<path id="Rectangle 5" class="shp0" d="M19.5,20.6h9v-4.6h-9z" />
		<path id="Rectangle 9" class="shp1" d="M19.5,19.33h9v-0.89h-9z" />
		<path id="Rectangle 10" class="shp1" d="M19.5,21.62h9v-0.62h-9z" />
		<path id="Rectangle 11" class="shp0" d="M19.5,24.1h9v-2.49h-9z" />
		<path id="Rectangle 7" class="shp1" d="M23,21.16h6v-0.56h-6z" />
		<path id="Path" class="shp1" d="M29.42,19.32c0,-0.3 -0.08,-0.52 -0.25,-0.66c-0.17,-0.14 -0.38,-0.22 -0.63,-0.22c-0.57,0 -0.9,0.29 -0.98,0.88z" />
		<g id="Group 3">
			<path id="Path" class="shp0" d="M42.41,24l-3.02,-3.92l2.95,-3.98h-3.61l-1.97,2.95v-5.42h-3.11v10.36h3.11v-3.15l1.95,3.15z" />
		</g>
	</g>
</svg>