<svg xmlns="http://www.w3.org/2000/svg" width="25" height="34" viewBox="0 0 25 34">
    <g fill="#4CC9FF" fill-rule="nonzero">
        <path d="M12.603 17.908a5.686 5.686 0 0 1-5.679-5.68 5.686 5.686 0 0 1 5.679-5.68 5.686 5.686 0 0 1 5.679 5.68 5.686 5.686 0 0 1-5.679 5.68zm0-10.359a4.685 4.685 0 0 0-4.679 4.68 4.685 4.685 0 0 0 4.679 4.68 4.685 4.685 0 0 0 4.679-4.68 4.685 4.685 0 0 0-4.679-4.68z"/>
        <path d="M12.603 33.205a.497.497 0 0 1-.383-.179C11.736 32.449.376 18.811.376 12.229.376 5.486 5.861 0 12.603 0S24.83 5.486 24.83 12.229c0 6.583-11.36 20.22-11.843 20.798a.505.505 0 0 1-.384.178zm0-32.205C6.412 1 1.376 6.037 1.376 12.229c0 5.571 9.216 17.215 11.227 19.688 2.01-2.474 11.227-14.118 11.227-19.688C23.829 6.037 18.793 1 12.603 1z"/>
    </g>
</svg>
